<mxfile host="app.diagrams.net" modified="2024-01-22T13:16:11.145Z" agent="Mozilla/5.0 (X11; Linux x86_64; rv:121.0) Gecko/20100101 Firefox/121.0" etag="u64Dxv_wjOQ1BWTgUDmi" version="22.1.21" type="github">
  <diagram name="Page-1" id="itKE1ojuYhtBKL7WtnN7">
    <mxGraphModel dx="2074" dy="1104" grid="1" gridSize="10" guides="1" tooltips="1" connect="1" arrows="1" fold="1" page="1" pageScale="1" pageWidth="850" pageHeight="1100" math="0" shadow="0">
      <root>
        <mxCell id="0" />
        <mxCell id="1" parent="0" />
      </root>
    </mxGraphModel>
  </diagram>
</mxfile>
